<mxfile host="app.diagrams.net" modified="2021-09-21T06:23:14.559Z" agent="5.0 (X11; Linux x86_64) AppleWebKit/537.36 (KHTML, like Gecko) Chrome/93.0.4577.82 Safari/537.36" etag="2r11pZcv6p9iI4OoCjnU" version="15.2.9" type="github">
  <diagram id="SvebwgVMP-8vFfFQ4kiK" name="Page-1">
    <mxGraphModel dx="868" dy="457" grid="1" gridSize="10" guides="1" tooltips="1" connect="1" arrows="1" fold="1" page="1" pageScale="1" pageWidth="827" pageHeight="1169" math="0" shadow="0">
      <root>
        <mxCell id="0" />
        <mxCell id="1" parent="0" />
        <mxCell id="-d_bC6cnwNdU08TP66Dv-1" value="Flowchart" parent="0" />
        <mxCell id="-d_bC6cnwNdU08TP66Dv-2" value="&lt;font style=&quot;font-size:11px;font-family:Calibri;color:#ffffff;direction:ltr;letter-spacing:0px;line-height:120%;opacity:1&quot;&gt;&lt;b&gt;START&lt;br/&gt;&lt;/b&gt;&lt;/font&gt;" style="verticalAlign=middle;align=center;vsdxID=1;fillColor=#4bacc6;gradientColor=none;shape=stencil(tVLREoIgEPwaHnEIcvLd7D+YBGUicA5K+/sgbNLMXpre9m737mZhEStdyzuBKHEe7En0qvYtYntEqTKtAOUDQqxCrJQWRAP2YupUdzwqIzrba9wwpLnNLtvSOEXJbewQ8qgPSa6VmcgLmuXFNzmHY+BguR1GfZ7k6wufPOaDchis515ZM+M0h0bgcApLzZsZ5XohukX7o5el9Z+crL/kX7wE8PpTqbROkZjy7xkIrZQfVt0B);strokeColor=#000000;spacingTop=-1;spacingBottom=-1;spacingLeft=-1;spacingRight=-1;labelBackgroundColor=none;rounded=0;html=1;whiteSpace=wrap;" vertex="1" parent="-d_bC6cnwNdU08TP66Dv-1">
          <mxGeometry x="330" y="100" width="114" height="40" as="geometry" />
        </mxCell>
        <mxCell id="-d_bC6cnwNdU08TP66Dv-5" value="&lt;font style=&quot;font-size:11px;font-family:Calibri;color:#000000;direction:ltr;letter-spacing:0px;line-height:120%;opacity:1&quot;&gt;Buka aplikasi Gojek&lt;br/&gt;&lt;/font&gt;" style="verticalAlign=middle;align=center;vsdxID=7;fillColor=#FFFFFF;gradientColor=none;shape=stencil(nZBLDoAgDERP0z3SIyjew0SURgSD+Lu9kMZoXLhwN9O+tukAlrNpJg1SzDH4QW/URgNYgZTkjA4UkwJUgGXng+6DX1zLfmoymdXo17xh5zmRJ6Q42BWCfc2oJfdAr+Yv+AP9Cb7OJ3H/2JG1HNGz/84klThPVCc=);strokeColor=#000000;spacingTop=-1;spacingBottom=-1;spacingLeft=-1;spacingRight=-1;labelBackgroundColor=none;rounded=0;html=1;whiteSpace=wrap;" vertex="1" parent="-d_bC6cnwNdU08TP66Dv-1">
          <mxGeometry x="330" y="180" width="114" height="60" as="geometry" />
        </mxCell>
        <mxCell id="-d_bC6cnwNdU08TP66Dv-6" value="&lt;font style=&quot;font-size:11px;font-family:Calibri;color:#000000;direction:ltr;letter-spacing:0px;line-height:120%;opacity:1&quot;&gt;Klik Menu Gofood&lt;br/&gt;&lt;/font&gt;" style="verticalAlign=middle;align=center;vsdxID=8;fillColor=#FFFFFF;gradientColor=none;shape=stencil(nZBLDoAgDERP0z3SIyjew0SURgSD+Lu9kMZoXLhwN9O+tukAlrNpJg1SzDH4QW/URgNYgZTkjA4UkwJUgGXng+6DX1zLfmoymdXo17xh5zmRJ6Q42BWCfc2oJfdAr+Yv+AP9Cb7OJ3H/2JG1HNGz/84klThPVCc=);strokeColor=#000000;spacingTop=-1;spacingBottom=-1;spacingLeft=-1;spacingRight=-1;labelBackgroundColor=none;rounded=0;html=1;whiteSpace=wrap;" vertex="1" parent="-d_bC6cnwNdU08TP66Dv-1">
          <mxGeometry x="330" y="320" width="114" height="60" as="geometry" />
        </mxCell>
        <mxCell id="-d_bC6cnwNdU08TP66Dv-7" value="&lt;font style=&quot;font-size:11px;font-family:Calibri;color:#000000;direction:ltr;letter-spacing:0px;line-height:120%;opacity:1&quot;&gt;Cari makanan yang ingin dipesan&lt;br/&gt;&lt;/font&gt;" style="verticalAlign=middle;align=center;vsdxID=9;fillColor=#FFFFFF;gradientColor=none;shape=stencil(nZBLDoAgDERP0z3SIyjew0SURgSD+Lu9kMZoXLhwN9O+tukAlrNpJg1SzDH4QW/URgNYgZTkjA4UkwJUgGXng+6DX1zLfmoymdXo17xh5zmRJ6Q42BWCfc2oJfdAr+Yv+AP9Cb7OJ3H/2JG1HNGz/84klThPVCc=);strokeColor=#000000;spacingTop=-1;spacingBottom=-1;spacingLeft=-1;spacingRight=-1;labelBackgroundColor=none;rounded=0;html=1;whiteSpace=wrap;" vertex="1" parent="-d_bC6cnwNdU08TP66Dv-1">
          <mxGeometry x="330" y="420" width="114" height="60" as="geometry" />
        </mxCell>
        <mxCell id="-d_bC6cnwNdU08TP66Dv-8" value="&lt;font style=&quot;font-size:11px;font-family:Calibri;color:#000000;direction:ltr;letter-spacing:0px;line-height:120%;opacity:1&quot;&gt;Klik Tambah Pesanan&lt;br/&gt;&lt;/font&gt;" style="verticalAlign=middle;align=center;vsdxID=10;fillColor=#FFFFFF;gradientColor=none;shape=stencil(nZBLDoAgDERP0z3SIyjew0SURgSD+Lu9kMZoXLhwN9O+tukAlrNpJg1SzDH4QW/URgNYgZTkjA4UkwJUgGXng+6DX1zLfmoymdXo17xh5zmRJ6Q42BWCfc2oJfdAr+Yv+AP9Cb7OJ3H/2JG1HNGz/84klThPVCc=);strokeColor=#000000;spacingTop=-1;spacingBottom=-1;spacingLeft=-1;spacingRight=-1;labelBackgroundColor=none;rounded=0;html=1;whiteSpace=wrap;" vertex="1" parent="-d_bC6cnwNdU08TP66Dv-1">
          <mxGeometry x="330" y="520" width="114" height="60" as="geometry" />
        </mxCell>
        <mxCell id="-d_bC6cnwNdU08TP66Dv-9" value="&lt;font style=&quot;font-size:11px;font-family:Calibri;color:#000000;direction:ltr;letter-spacing:0px;line-height:120%;opacity:1&quot;&gt;Pilih Delivery / Pickup&lt;br/&gt;&lt;/font&gt;" style="verticalAlign=middle;align=center;vsdxID=13;fillColor=#FFFFFF;gradientColor=none;shape=stencil(nZBLDoAgDERP0z3SIyjew0SURgSD+Lu9kMZoXLhwN9O+tukAlrNpJg1SzDH4QW/URgNYgZTkjA4UkwJUgGXng+6DX1zLfmoymdXo17xh5zmRJ6Q42BWCfc2oJfdAr+Yv+AP9Cb7OJ3H/2JG1HNGz/84klThPVCc=);strokeColor=#000000;spacingTop=-1;spacingBottom=-1;spacingLeft=-1;spacingRight=-1;labelBackgroundColor=none;rounded=0;html=1;whiteSpace=wrap;" vertex="1" parent="-d_bC6cnwNdU08TP66Dv-1">
          <mxGeometry x="330" y="610" width="114" height="60" as="geometry" />
        </mxCell>
        <mxCell id="-d_bC6cnwNdU08TP66Dv-10" value="&lt;font style=&quot;font-size:11px;font-family:Calibri;color:#000000;direction:ltr;letter-spacing:0px;line-height:120%;opacity:1&quot;&gt;Tentukan jumlah pesanan&lt;br/&gt;&lt;/font&gt;" style="verticalAlign=middle;align=center;vsdxID=14;fillColor=#FFFFFF;gradientColor=none;shape=stencil(nZBLDoAgDERP0z3SIyjew0SURgSD+Lu9kMZoXLhwN9O+tukAlrNpJg1SzDH4QW/URgNYgZTkjA4UkwJUgGXng+6DX1zLfmoymdXo17xh5zmRJ6Q42BWCfc2oJfdAr+Yv+AP9Cb7OJ3H/2JG1HNGz/84klThPVCc=);strokeColor=#000000;spacingTop=-1;spacingBottom=-1;spacingLeft=-1;spacingRight=-1;labelBackgroundColor=none;rounded=0;html=1;whiteSpace=wrap;" vertex="1" parent="-d_bC6cnwNdU08TP66Dv-1">
          <mxGeometry x="330" y="700" width="114" height="60" as="geometry" />
        </mxCell>
        <mxCell id="-d_bC6cnwNdU08TP66Dv-11" value="&lt;font style=&quot;font-size:11px;font-family:Calibri;color:#000000;direction:ltr;letter-spacing:0px;line-height:120%;opacity:1&quot;&gt;Bayar dengan Tunai / Gopay&lt;br/&gt;&lt;/font&gt;" style="verticalAlign=middle;align=center;vsdxID=15;fillColor=#FFFFFF;gradientColor=none;shape=stencil(nZBLDoAgDERP0z3SIyjew0SURgSD+Lu9kMZoXLhwN9O+tukAlrNpJg1SzDH4QW/URgNYgZTkjA4UkwJUgGXng+6DX1zLfmoymdXo17xh5zmRJ6Q42BWCfc2oJfdAr+Yv+AP9Cb7OJ3H/2JG1HNGz/84klThPVCc=);strokeColor=#000000;spacingTop=-1;spacingBottom=-1;spacingLeft=-1;spacingRight=-1;labelBackgroundColor=none;rounded=0;html=1;whiteSpace=wrap;" vertex="1" parent="-d_bC6cnwNdU08TP66Dv-1">
          <mxGeometry x="330" y="790" width="114" height="60" as="geometry" />
        </mxCell>
        <mxCell id="-d_bC6cnwNdU08TP66Dv-12" value="&lt;font style=&quot;font-size:11px;font-family:Calibri;color:#000000;direction:ltr;letter-spacing:0px;line-height:120%;opacity:1&quot;&gt;Klik Pesan&lt;br/&gt;&lt;/font&gt;" style="verticalAlign=middle;align=center;vsdxID=16;fillColor=#FFFFFF;gradientColor=none;shape=stencil(nZBLDoAgDERP0z3SIyjew0SURgSD+Lu9kMZoXLhwN9O+tukAlrNpJg1SzDH4QW/URgNYgZTkjA4UkwJUgGXng+6DX1zLfmoymdXo17xh5zmRJ6Q42BWCfc2oJfdAr+Yv+AP9Cb7OJ3H/2JG1HNGz/84klThPVCc=);strokeColor=#000000;spacingTop=-1;spacingBottom=-1;spacingLeft=-1;spacingRight=-1;labelBackgroundColor=none;rounded=0;html=1;whiteSpace=wrap;" vertex="1" parent="-d_bC6cnwNdU08TP66Dv-1">
          <mxGeometry x="330" y="880" width="114" height="60" as="geometry" />
        </mxCell>
        <mxCell id="-d_bC6cnwNdU08TP66Dv-13" value="&lt;font style=&quot;font-size:11px;font-family:Calibri;color:#ffffff;direction:ltr;letter-spacing:0px;line-height:120%;opacity:1&quot;&gt;&lt;b&gt;END&lt;br/&gt;&lt;/b&gt;&lt;/font&gt;" style="verticalAlign=middle;align=center;vsdxID=17;fillColor=#f59d56;gradientColor=none;shape=stencil(tVLREoIgEPwaHnEIcvLd7D+YBGUicA5K+/sgbNLMXpre9m737mZhEStdyzuBKHEe7En0qvYtYntEqTKtAOUDQqxCrJQWRAP2YupUdzwqIzrba9wwpLnNLtvSOEXJbewQ8qgPSa6VmcgLmuXFNzmHY+BguR1GfZ7k6wufPOaDchis515ZM+M0h0bgcApLzZsZ5XohukX7o5el9Z+crL/kX7wE8PpTqbROkZjy7xkIrZQfVt0B);strokeColor=#000000;spacingTop=-1;spacingBottom=-1;spacingLeft=-1;spacingRight=-1;labelBackgroundColor=none;rounded=0;html=1;whiteSpace=wrap;" vertex="1" parent="-d_bC6cnwNdU08TP66Dv-1">
          <mxGeometry x="330" y="970" width="114" height="40" as="geometry" />
        </mxCell>
        <mxCell id="-d_bC6cnwNdU08TP66Dv-14" value="Connector" parent="0" />
        <mxCell id="-d_bC6cnwNdU08TP66Dv-15" style="vsdxID=30;edgeStyle=none;startArrow=none;endArrow=none;startSize=9;endSize=9;spacingTop=0;spacingBottom=0;spacingLeft=0;spacingRight=0;verticalAlign=middle;html=1;labelBackgroundColor=#ffffff;rounded=0;exitX=0.5;exitY=1;exitDx=0;exitDy=0;exitPerimeter=0;entryX=0.5;entryY=0;entryDx=0;entryDy=0;entryPerimeter=0;" edge="1" parent="-d_bC6cnwNdU08TP66Dv-14" source="-d_bC6cnwNdU08TP66Dv-12" target="-d_bC6cnwNdU08TP66Dv-13">
          <mxGeometry relative="1" as="geometry">
            <mxPoint x="10" as="offset" />
            <Array as="points" />
          </mxGeometry>
        </mxCell>
        <mxCell id="-d_bC6cnwNdU08TP66Dv-16" style="vsdxID=29;edgeStyle=none;startArrow=none;endArrow=none;startSize=9;endSize=9;spacingTop=0;spacingBottom=0;spacingLeft=0;spacingRight=0;verticalAlign=middle;html=1;labelBackgroundColor=#ffffff;rounded=0;exitX=0.5;exitY=1;exitDx=0;exitDy=0;exitPerimeter=0;entryX=0.5;entryY=0;entryDx=0;entryDy=0;entryPerimeter=0;" edge="1" parent="-d_bC6cnwNdU08TP66Dv-14" source="-d_bC6cnwNdU08TP66Dv-11" target="-d_bC6cnwNdU08TP66Dv-12">
          <mxGeometry relative="1" as="geometry">
            <mxPoint x="10" as="offset" />
            <Array as="points" />
          </mxGeometry>
        </mxCell>
        <mxCell id="-d_bC6cnwNdU08TP66Dv-17" style="vsdxID=28;edgeStyle=none;startArrow=none;endArrow=none;startSize=9;endSize=9;spacingTop=0;spacingBottom=0;spacingLeft=0;spacingRight=0;verticalAlign=middle;html=1;labelBackgroundColor=#ffffff;rounded=0;exitX=0.5;exitY=1;exitDx=0;exitDy=0;exitPerimeter=0;entryX=0.5;entryY=0;entryDx=0;entryDy=0;entryPerimeter=0;" edge="1" parent="-d_bC6cnwNdU08TP66Dv-14" source="-d_bC6cnwNdU08TP66Dv-10" target="-d_bC6cnwNdU08TP66Dv-11">
          <mxGeometry relative="1" as="geometry">
            <mxPoint x="10" as="offset" />
            <Array as="points" />
          </mxGeometry>
        </mxCell>
        <mxCell id="-d_bC6cnwNdU08TP66Dv-18" style="vsdxID=26;edgeStyle=none;startArrow=none;endArrow=none;startSize=9;endSize=9;spacingTop=0;spacingBottom=0;spacingLeft=0;spacingRight=0;verticalAlign=middle;html=1;labelBackgroundColor=#ffffff;rounded=0;exitX=0.5;exitY=1;exitDx=0;exitDy=0;exitPerimeter=0;entryX=0.5;entryY=0;entryDx=0;entryDy=0;entryPerimeter=0;" edge="1" parent="-d_bC6cnwNdU08TP66Dv-14" source="-d_bC6cnwNdU08TP66Dv-9" target="-d_bC6cnwNdU08TP66Dv-10">
          <mxGeometry relative="1" as="geometry">
            <mxPoint x="10" as="offset" />
            <Array as="points" />
          </mxGeometry>
        </mxCell>
        <mxCell id="-d_bC6cnwNdU08TP66Dv-19" style="vsdxID=25;edgeStyle=none;startArrow=none;endArrow=none;startSize=9;endSize=9;spacingTop=0;spacingBottom=0;spacingLeft=0;spacingRight=0;verticalAlign=middle;html=1;labelBackgroundColor=#ffffff;rounded=0;exitX=0.5;exitY=1;exitDx=0;exitDy=0;exitPerimeter=0;entryX=0.5;entryY=0;entryDx=0;entryDy=0;entryPerimeter=0;" edge="1" parent="-d_bC6cnwNdU08TP66Dv-14" source="-d_bC6cnwNdU08TP66Dv-8" target="-d_bC6cnwNdU08TP66Dv-9">
          <mxGeometry relative="1" as="geometry">
            <mxPoint x="10" as="offset" />
            <Array as="points" />
          </mxGeometry>
        </mxCell>
        <mxCell id="-d_bC6cnwNdU08TP66Dv-20" style="vsdxID=24;edgeStyle=none;startArrow=none;endArrow=none;startSize=9;endSize=9;spacingTop=0;spacingBottom=0;spacingLeft=0;spacingRight=0;verticalAlign=middle;html=1;labelBackgroundColor=#ffffff;rounded=0;exitX=0.5;exitY=1;exitDx=0;exitDy=0;exitPerimeter=0;entryX=0.5;entryY=0;entryDx=0;entryDy=0;entryPerimeter=0;" edge="1" parent="-d_bC6cnwNdU08TP66Dv-14" source="-d_bC6cnwNdU08TP66Dv-7" target="-d_bC6cnwNdU08TP66Dv-8">
          <mxGeometry relative="1" as="geometry">
            <mxPoint x="10" as="offset" />
            <Array as="points" />
          </mxGeometry>
        </mxCell>
        <mxCell id="-d_bC6cnwNdU08TP66Dv-21" style="vsdxID=23;edgeStyle=none;startArrow=none;endArrow=none;startSize=9;endSize=9;spacingTop=0;spacingBottom=0;spacingLeft=0;spacingRight=0;verticalAlign=middle;html=1;labelBackgroundColor=#ffffff;rounded=0;exitX=0.5;exitY=1;exitDx=0;exitDy=0;exitPerimeter=0;entryX=0.5;entryY=0;entryDx=0;entryDy=0;entryPerimeter=0;" edge="1" parent="-d_bC6cnwNdU08TP66Dv-14" source="-d_bC6cnwNdU08TP66Dv-6" target="-d_bC6cnwNdU08TP66Dv-7">
          <mxGeometry relative="1" as="geometry">
            <mxPoint x="10" as="offset" />
            <Array as="points" />
          </mxGeometry>
        </mxCell>
        <mxCell id="-d_bC6cnwNdU08TP66Dv-22" style="vsdxID=19;edgeStyle=none;startArrow=none;endArrow=none;startSize=9;endSize=9;spacingTop=0;spacingBottom=0;spacingLeft=0;spacingRight=0;verticalAlign=middle;html=1;labelBackgroundColor=#ffffff;rounded=0;exitX=0.5;exitY=1;exitDx=0;exitDy=0;exitPerimeter=0;entryX=0.5;entryY=0;entryDx=0;entryDy=0;entryPerimeter=0;" edge="1" parent="-d_bC6cnwNdU08TP66Dv-14" source="-d_bC6cnwNdU08TP66Dv-2">
          <mxGeometry relative="1" as="geometry">
            <mxPoint x="10" as="offset" />
            <Array as="points" />
            <mxPoint x="387" y="180" as="targetPoint" />
          </mxGeometry>
        </mxCell>
        <mxCell id="-d_bC6cnwNdU08TP66Dv-23" style="vsdxID=20;edgeStyle=none;startArrow=none;endArrow=none;startSize=9;endSize=9;spacingTop=0;spacingBottom=0;spacingLeft=0;spacingRight=0;verticalAlign=middle;html=1;labelBackgroundColor=#ffffff;rounded=0;exitX=0.5;exitY=1;exitDx=0;exitDy=0;exitPerimeter=0;entryX=0.5;entryY=0;entryDx=0;entryDy=0;entryPerimeter=0;" edge="1" parent="-d_bC6cnwNdU08TP66Dv-14">
          <mxGeometry relative="1" as="geometry">
            <mxPoint x="10" as="offset" />
            <Array as="points" />
            <mxPoint x="387" y="240" as="sourcePoint" />
            <mxPoint x="387" y="280" as="targetPoint" />
          </mxGeometry>
        </mxCell>
        <mxCell id="-d_bC6cnwNdU08TP66Dv-24" style="vsdxID=21;edgeStyle=none;startArrow=none;endArrow=none;startSize=9;endSize=9;spacingTop=0;spacingBottom=0;spacingLeft=0;spacingRight=0;verticalAlign=middle;html=1;labelBackgroundColor=#ffffff;rounded=0;exitX=0.5;exitY=1;exitDx=0;exitDy=0;exitPerimeter=0;entryX=0.5;entryY=0;entryDx=0;entryDy=0;entryPerimeter=0;" edge="1" parent="-d_bC6cnwNdU08TP66Dv-14" target="-d_bC6cnwNdU08TP66Dv-5">
          <mxGeometry relative="1" as="geometry">
            <mxPoint x="10" as="offset" />
            <Array as="points" />
            <mxPoint x="387" y="180" as="sourcePoint" />
          </mxGeometry>
        </mxCell>
        <mxCell id="-d_bC6cnwNdU08TP66Dv-25" style="vsdxID=22;edgeStyle=none;startArrow=none;endArrow=none;startSize=9;endSize=9;spacingTop=0;spacingBottom=0;spacingLeft=0;spacingRight=0;verticalAlign=middle;html=1;labelBackgroundColor=#ffffff;rounded=0;exitX=0.5;exitY=1;exitDx=0;exitDy=0;exitPerimeter=0;entryX=0.5;entryY=0;entryDx=0;entryDy=0;entryPerimeter=0;" edge="1" parent="-d_bC6cnwNdU08TP66Dv-14" source="-d_bC6cnwNdU08TP66Dv-5" target="-d_bC6cnwNdU08TP66Dv-6">
          <mxGeometry relative="1" as="geometry">
            <mxPoint x="10" as="offset" />
            <Array as="points" />
          </mxGeometry>
        </mxCell>
      </root>
    </mxGraphModel>
  </diagram>
</mxfile>
